<?xml version="1.0" standalone="no"?>
<!DOCTYPE svg PUBLIC "-//W3C//DTD SVG 20010904//EN"
 "http://www.w3.org/TR/2001/REC-SVG-20010904/DTD/svg10.dtd">
<svg version="1.0" xmlns="http://www.w3.org/2000/svg"
 width="256.000000pt" height="255.000000pt" viewBox="0 0 256.000000 255.000000"
 preserveAspectRatio="xMidYMid meet">
  <style>
    .font {
      font-family: 'Roboto', 'Arial', serif;
      font-size: 50px;
      color: blue;
      font-weight: bold;
    }
  </style>

  <g transform="translate(0.000000,255.000000) scale(0.100000,-0.100000)"
  fill="#000000" stroke="none">
    <path d="M1932 2507 c-36 -82 -121 -115 -207 -83 -51 20 -63 16 -114 -38 l-34
    -35 17 -55 c30 -94 -1 -163 -90 -202 l-54 -24 0 -65 c0 -54 3 -67 18 -71 116
    -34 165 -138 112 -237 l-20 -38 43 -45 43 -46 34 21 c88 53 204 4 234 -100
    l13 -44 66 -3 c64 -3 65 -3 71 25 25 113 160 169 249 103 l29 -22 54 53 53 53
    -20 33 c-53 85 -13 196 81 230 l50 18 0 65 0 65 -53 25 c-90 43 -122 129 -80
    217 l16 35 -45 45 -45 45 -31 -16 c-86 -44 -207 11 -227 104 -7 30 -7 30 -75
    30 l-69 0 -19 -43z m196 -329 c128 -85 128 -281 0 -365 -56 -38 -157 -44 -214
    -15 -166 86 -166 305 1 396 49 26 161 18 213 -16z"/>
    <path d="M650 1916 c-36 -13 -87 -35 -115 -48 l-50 -26 0 -78 c-1 -128 -55
    -218 -163 -271 -49 -24 -68 -28 -139 -27 l-81 1 -35 -76 c-51 -113 -63 -154
    -46 -160 31 -10 108 -95 129 -142 29 -68 29 -160 -1 -228 -20 -47 -80 -114
    -124 -138 -17 -10 -18 -15 -6 -54 7 -24 26 -75 43 -112 24 -52 35 -66 47 -62
    9 4 39 9 67 12 187 20 348 -165 304 -348 -15 -62 -15 -63 96 -109 117 -48 124
    -48 155 3 28 47 91 96 148 115 127 44 285 -22 350 -145 l11 -22 68 23 c37 13
    93 36 125 52 56 27 57 30 50 59 -4 16 -8 59 -8 95 1 77 25 135 82 194 61 63
    112 81 220 80 l92 -1 30 71 c16 39 35 91 42 115 12 39 11 44 -6 54 -10 5 -38
    28 -61 49 -133 123 -111 350 44 448 l24 15 -22 54 c-12 30 -32 78 -46 106
    l-24 52 -77 -1 c-61 0 -89 5 -131 23 -111 50 -181 171 -169 291 l6 57 -53 26
    c-74 36 -154 67 -174 67 -9 0 -25 -12 -36 -28 -66 -96 -210 -137 -329 -92 -49
    18 -147 100 -147 122 0 13 -20 9 -90 -16z m503 -594 c77 -38 143 -106 184
    -190 25 -51 28 -67 28 -162 0 -93 -3 -112 -27 -162 -75 -160 -258 -259 -424
    -229 -135 25 -238 104 -297 229 -29 61 -32 76 -32 162 0 82 4 103 27 152 36
    77 70 121 129 164 79 58 139 75 250 71 84 -2 103 -6 162 -35z"/>
  </g>

  <text x="0" y="300" class="font">Tech store</text>
</svg>
